<?xml version="1.0" encoding="utf-8"?>
<!-- Generator: Adobe Illustrator 26.3.1, SVG Export Plug-In . SVG Version: 6.00 Build 0)  -->
<svg version="1.1" id="Layer_1" xmlns="http://www.w3.org/2000/svg" xmlns:xlink="http://www.w3.org/1999/xlink" x="0px" y="0px"
	 viewBox="0 0 256 256" style="enable-background:new 0 0 256 256;" xml:space="preserve">
<style type="text/css">
	.st0{fill:url(#SVGID_1_);}
	.st1{fill:#F2F2F2;}
	.st2{opacity:0.15;}
</style>
<g>
	<linearGradient id="SVGID_1_" gradientUnits="userSpaceOnUse" x1="15.8782" y1="14.3137" x2="240.2261" y2="241.792">
		<stop  offset="0" style="stop-color:#0061FF"/>
		<stop  offset="0.2757" style="stop-color:#005BF4"/>
		<stop  offset="0.7521" style="stop-color:#0049D8"/>
		<stop  offset="1" style="stop-color:#003FC7"/>
	</linearGradient>
	<path class="st0" d="M208,256H48c-26.5,0-48-21.5-48-48V48C0,21.5,21.5,0,48,0h160c26.5,0,48,21.5,48,48v160
		C256,234.5,234.5,256,208,256z"/>
</g>
<g>
	<path class="st1" d="M101.9,174.9c-2.5,0-4.5,2-4.5,4.5v32.4c0,1.5,1.2,2.7,2.7,2.7h0.9v5.4h-0.9c-4.5,0-8.1-3.6-8.1-8.1v-32.4
		c0-5.5,4.4-9.9,9.9-9.9h43.2c4.5,0,8.1,3.6,8.1,8.1v0.9h-5.4v-0.9c0-1.5-1.2-2.7-2.7-2.7H101.9z"/>
	<path class="st1" d="M155.9,182.1h-1.8l-0.4,0c-1.3,0.2-2.3,1.3-2.3,2.7c0,1.5,1.2,2.7,2.7,2.7h1.8l0.4,0c1.3,0.2,2.3,1.3,2.3,2.7
		v3.6l0,0.4c0.2,1.3,1.3,2.3,2.7,2.3c1.5,0,2.7-1.2,2.7-2.7v-3.6l0-0.6C163.7,185.4,160.2,182.1,155.9,182.1z"/>
	<path class="st1" d="M110,202.4c-0.2-1.3-1.3-2.3-2.7-2.3c-1.5,0-2.7,1.2-2.7,2.7v9l0,0.4c0.2,1.3,1.3,2.3,2.7,2.3
		c1.5,0,2.7-1.2,2.7-2.7v-9L110,202.4z"/>
	<path class="st1" d="M107.3,218.1c1.4,0,2.5,1,2.7,2.3l0,0.4v3.6c0,1.4,1,2.5,2.3,2.7l0.4,0h1.8c1.5,0,2.7,1.2,2.7,2.7
		c0,1.4-1,2.5-2.3,2.7l-0.4,0h-1.8c-4.3,0-7.8-3.3-8.1-7.5l0-0.6v-3.6C104.6,219.3,105.8,218.1,107.3,218.1z"/>
	<path class="st1" d="M161.3,218.1c1.5,0,2.7,1.2,2.7,2.7v3.6c0,4.5-3.6,8.1-8.1,8.1h-3.6c-1.5,0-2.7-1.2-2.7-2.7s1.2-2.7,2.7-2.7
		h3.6c1.5,0,2.7-1.2,2.7-2.7v-3.6C158.6,219.3,159.8,218.1,161.3,218.1z"/>
	<path class="st1" d="M143.3,227.1h-5.4l-0.4,0c-1.3,0.2-2.3,1.3-2.3,2.7c0,1.5,1.2,2.7,2.7,2.7h5.4l0.4,0c1.3-0.2,2.3-1.3,2.3-2.7
		C146,228.3,144.8,227.1,143.3,227.1z"/>
	<path class="st1" d="M123.5,227.1h5.4c1.5,0,2.7,1.2,2.7,2.7c0,1.4-1,2.5-2.3,2.7l-0.4,0h-5.4c-1.5,0-2.7-1.2-2.7-2.7
		c0-1.4,1-2.5,2.3-2.7L123.5,227.1z"/>
	<path class="st1" d="M161.3,200.1c1.4,0,2.5,1,2.7,2.3l0,0.4v9c0,1.5-1.2,2.7-2.7,2.7c-1.4,0-2.5-1-2.7-2.3l0-0.4v-9
		C158.6,201.3,159.8,200.1,161.3,200.1z"/>
	<path class="st1" d="M116.3,182.1c1.5,0,2.7,1.2,2.7,2.7c0,1.5-1.2,2.7-2.7,2.7h-3.6c-1.5,0-2.7,1.2-2.7,2.7v3.6
		c0,1.5-1.2,2.7-2.7,2.7c-1.5,0-2.7-1.2-2.7-2.7v-3.6c0-4.5,3.6-8.1,8.1-8.1H116.3z"/>
	<path class="st1" d="M145.1,182.1h-5.4l-0.4,0c-1.3,0.2-2.3,1.3-2.3,2.7c0,1.5,1.2,2.7,2.7,2.7h5.4l0.4,0c1.3-0.2,2.3-1.3,2.3-2.7
		C147.8,183.3,146.6,182.1,145.1,182.1z"/>
	<path class="st1" d="M125.3,182.1h5.4c1.5,0,2.7,1.2,2.7,2.7c0,1.4-1,2.5-2.3,2.7l-0.4,0h-5.4c-1.5,0-2.7-1.2-2.7-2.7
		c0-1.4,1-2.5,2.3-2.7L125.3,182.1z"/>
</g>
<g>
	<g>
		<path class="st1" d="M39.3,101c-2.8,0-5.2-0.6-7.3-1.8c-2.1-1.2-3.7-2.9-4.8-5c-1.1-2.1-1.7-4.5-1.7-7.3c0-2.1,0.3-3.9,1-5.7
			c0.7-1.7,1.6-3.2,2.9-4.5c1.2-1.3,2.7-2.2,4.4-2.9c1.7-0.7,3.5-1,5.5-1c3.2,0,5.8,0.7,7.8,2c2,1.4,3.6,3.3,4.8,5.7L47,82.4
			c-1-1.6-2.1-2.7-3.4-3.4c-1.3-0.7-2.7-1-4.3-1s-3.1,0.4-4.3,1.1c-1.3,0.8-2.3,1.8-3,3.2c-0.7,1.3-1.1,2.9-1.1,4.7
			c0,1.8,0.4,3.3,1.1,4.7c0.7,1.4,1.7,2.4,3,3.2c1.3,0.8,2.7,1.1,4.3,1.1s3.1-0.3,4.3-1c1.3-0.7,2.4-1.8,3.4-3.4l4.9,1.8
			c-1.1,2.4-2.7,4.3-4.8,5.7C45.1,100.4,42.5,101,39.3,101z"/>
		<path class="st1" d="M63.9,101c-2,0-3.8-0.4-5.3-1.3c-1.5-0.9-2.7-2.1-3.6-3.6c-0.9-1.5-1.3-3.3-1.3-5.3c0-2,0.4-3.8,1.3-5.3
			c0.9-1.5,2-2.7,3.6-3.6c1.5-0.9,3.3-1.3,5.3-1.3c2,0,3.8,0.4,5.3,1.3c1.5,0.9,2.7,2.1,3.6,3.6c0.9,1.5,1.3,3.3,1.3,5.3
			c0,2-0.4,3.8-1.3,5.3c-0.9,1.5-2,2.7-3.6,3.6C67.7,100.6,65.9,101,63.9,101z M63.9,96c1.4,0,2.6-0.5,3.5-1.4
			c0.9-0.9,1.4-2.2,1.4-3.7c0-1.5-0.5-2.8-1.4-3.8c-0.9-1-2.1-1.4-3.5-1.4c-1.4,0-2.6,0.5-3.5,1.4C59.5,88,59,89.2,59,90.8
			c0,1.5,0.4,2.8,1.3,3.8S62.4,96,63.9,96z"/>
		<path class="st1" d="M89.1,80.6c1.3,0,2.4,0.2,3.2,0.7c0.8,0.5,1.4,1.1,1.8,1.8c0.4,0.8,0.7,1.6,0.8,2.6c0.1,1,0.2,2,0.2,3v11.8
			H90V88.7c0-1.2-0.2-2-0.7-2.4c-0.5-0.4-1.1-0.6-1.8-0.6c-0.7,0-1.3,0.1-2,0.4c-0.7,0.3-1.3,0.6-1.9,1.1c-0.6,0.5-1.1,1-1.5,1.6
			L81.3,86h1.3v14.6h-5.2V81h3.9l1.1,3.8l-1.7-0.1c0.7-0.8,1.5-1.5,2.4-2.1c0.9-0.6,1.8-1.1,2.9-1.5C86.9,80.7,88,80.6,89.1,80.6z"
			/>
		<path class="st1" d="M107.3,101c-1.8,0-3.4-0.4-4.7-1.3c-1.4-0.9-2.4-2.1-3.2-3.6c-0.7-1.5-1.1-3.3-1.1-5.3c0-2,0.4-3.8,1.1-5.3
			c0.8-1.5,1.8-2.7,3.2-3.6c1.4-0.9,2.9-1.3,4.7-1.3c1.7,0,3.2,0.4,4.5,1.2c1.3,0.8,2.3,2,3,3.5c0.7,1.5,1.1,3.4,1.1,5.5
			c0,2.1-0.4,3.9-1.1,5.4c-0.7,1.5-1.7,2.7-3,3.6C110.5,100.6,109,101,107.3,101z M108.3,96.2c1.4,0,2.5-0.5,3.3-1.5
			s1.3-2.3,1.3-3.9c0-1.6-0.4-2.9-1.3-3.9s-2-1.5-3.3-1.5c-1.3,0-2.4,0.5-3.3,1.5c-0.9,1-1.3,2.3-1.3,3.9c0,1.6,0.4,2.9,1.3,3.9
			C105.8,95.7,106.9,96.2,108.3,96.2z M113.9,100.6l-1.3-4.6h0.4v-9.8h-0.4V73.3h5.2v27.2H113.9z"/>
		<path class="st1" d="M121.9,74.9c0-1,0.3-1.7,0.9-2.3c0.6-0.6,1.3-0.9,2.3-0.9s1.7,0.3,2.3,0.9c0.6,0.6,0.9,1.4,0.9,2.3
			c0,0.9-0.3,1.7-0.9,2.2c-0.6,0.6-1.3,0.9-2.3,0.9s-1.7-0.3-2.3-0.9C122.1,76.6,121.9,75.8,121.9,74.9z M127.7,100.6h-5.2V81h5.2
			V100.6z"/>
		<path class="st1" d="M130.9,85.8V81h12.6v4.8H130.9z M140.5,100.9c-2,0-3.6-0.5-4.7-1.6c-1.2-1.1-1.7-2.7-1.7-5.1v-13l-0.1-0.2
			l1.1-4.6h4.2v17c0,0.9,0.2,1.5,0.6,1.9c0.4,0.4,0.9,0.6,1.6,0.6c0.4,0,0.8,0,1.2-0.1c0.3-0.1,0.7-0.1,0.9-0.2v4.9
			c-0.4,0.2-0.9,0.3-1.4,0.4C141.7,100.9,141.1,100.9,140.5,100.9z"/>
		<path class="st1" d="M147.1,74.9c0-1,0.3-1.7,0.9-2.3c0.6-0.6,1.3-0.9,2.3-0.9c1,0,1.7,0.3,2.3,0.9s0.9,1.4,0.9,2.3
			c0,0.9-0.3,1.7-0.9,2.2c-0.6,0.6-1.3,0.9-2.3,0.9c-1,0-1.7-0.3-2.3-0.9C147.4,76.6,147.1,75.8,147.1,74.9z M152.9,100.6h-5.2V81
			h5.2V100.6z"/>
		<path class="st1" d="M166.5,101c-2,0-3.8-0.4-5.3-1.3c-1.5-0.9-2.7-2.1-3.6-3.6c-0.9-1.5-1.3-3.3-1.3-5.3c0-2,0.4-3.8,1.3-5.3
			c0.9-1.5,2-2.7,3.6-3.6c1.5-0.9,3.3-1.3,5.3-1.3c2,0,3.8,0.4,5.3,1.3c1.5,0.9,2.7,2.1,3.6,3.6c0.9,1.5,1.3,3.3,1.3,5.3
			c0,2-0.4,3.8-1.3,5.3c-0.9,1.5-2,2.7-3.6,3.6S168.6,101,166.5,101z M166.5,96c1.4,0,2.6-0.5,3.5-1.4c0.9-0.9,1.4-2.2,1.4-3.7
			c0-1.5-0.5-2.8-1.4-3.8s-2.1-1.4-3.5-1.4c-1.4,0-2.6,0.5-3.5,1.4c-0.9,0.9-1.3,2.2-1.3,3.7c0,1.5,0.4,2.8,1.3,3.8
			C163.9,95.5,165.1,96,166.5,96z"/>
		<path class="st1" d="M191.8,80.6c1.3,0,2.4,0.2,3.2,0.7c0.8,0.5,1.4,1.1,1.8,1.8c0.4,0.8,0.7,1.6,0.8,2.6c0.1,1,0.2,2,0.2,3v11.8
			h-5.2V88.7c0-1.2-0.2-2-0.7-2.4c-0.5-0.4-1.1-0.6-1.8-0.6c-0.7,0-1.3,0.1-2,0.4c-0.7,0.3-1.3,0.6-1.9,1.1c-0.6,0.5-1.1,1-1.5,1.6
			L184,86h1.3v14.6h-5.2V81h3.9l1.1,3.8l-1.7-0.1c0.7-0.8,1.5-1.5,2.4-2.1c0.9-0.6,1.8-1.1,2.9-1.5
			C189.6,80.7,190.7,80.6,191.8,80.6z"/>
		<path class="st1" d="M208.2,101.1c-1.4,0-2.7-0.3-3.8-0.8c-1.1-0.5-1.9-1.3-2.5-2.3s-0.9-2.2-0.9-3.5c0-1.3,0.3-2.5,0.9-3.5
			c0.6-1,1.5-1.8,2.6-2.3c1.1-0.5,2.3-0.8,3.7-0.8c1.9,0,3.4,0.4,4.6,1.3c1.2,0.9,2,2.1,2.4,3.7l-2.4-0.3v-4.7c0-0.7-0.3-1.4-0.8-2
			c-0.5-0.6-1.4-0.9-2.6-0.9c-0.7,0-1.6,0.1-2.5,0.3c-0.9,0.2-1.9,0.5-2.8,1l-1.6-3.8c1.1-0.6,2.4-1,3.7-1.3s2.6-0.5,3.9-0.5
			c1.8,0,3.3,0.3,4.4,1c1.2,0.6,2.1,1.5,2.6,2.6c0.6,1.1,0.9,2.4,0.9,3.8v12.6h-4.2l-1.1-3.7l2.5-0.7c-0.5,1.6-1.3,2.8-2.5,3.7
			C211.5,100.7,210,101.1,208.2,101.1z M209.6,97.1c1,0,1.7-0.2,2.3-0.7s0.9-1.1,0.9-1.9c0-0.8-0.3-1.5-0.9-1.9
			c-0.6-0.5-1.4-0.7-2.3-0.7c-1,0-1.7,0.2-2.3,0.7c-0.6,0.5-0.9,1.1-0.9,1.9c0,0.8,0.3,1.4,0.9,1.9
			C207.9,96.9,208.7,97.1,209.6,97.1z"/>
		<path class="st1" d="M227.1,100.8c-0.9,0-1.7-0.2-2.4-0.6c-0.7-0.4-1.3-1-1.8-1.7c-0.4-0.8-0.7-1.8-0.7-3.1V73.3h5.2v20.2
			c0,0.9,0.2,1.5,0.6,1.8c0.4,0.3,0.8,0.4,1.4,0.4v4.7c-0.3,0.1-0.6,0.2-1.1,0.2S227.5,100.8,227.1,100.8z"/>
		<path class="st1" d="M41,144.6v-27.2h5.2v27.2H41z M44.4,133.7v-5h15v5H44.4z M57.7,144.6v-27.2h5.2v27.2H57.7z"/>
		<path class="st1" d="M67.4,118.9c0-1,0.3-1.7,0.9-2.3c0.6-0.6,1.3-0.9,2.3-0.9s1.7,0.3,2.3,0.9c0.6,0.6,0.9,1.4,0.9,2.3
			c0,0.9-0.3,1.7-0.9,2.2c-0.6,0.6-1.3,0.9-2.3,0.9s-1.7-0.3-2.3-0.9C67.7,120.6,67.4,119.8,67.4,118.9z M73.2,144.6H68V125h5.2
			V144.6z"/>
		<path class="st1" d="M85.6,145c-1.8,0-3.4-0.4-4.7-1.3c-1.4-0.9-2.4-2.1-3.2-3.6c-0.7-1.5-1.1-3.3-1.1-5.3c0-2,0.4-3.8,1.1-5.3
			c0.8-1.5,1.8-2.7,3.2-3.6c1.4-0.9,2.9-1.3,4.7-1.3c1.7,0,3.2,0.4,4.5,1.2c1.3,0.8,2.3,2,3,3.5c0.7,1.5,1.1,3.4,1.1,5.5
			c0,2.1-0.4,3.9-1.1,5.4c-0.7,1.5-1.7,2.7-3,3.6C88.8,144.6,87.3,145,85.6,145z M86.6,140.2c1.4,0,2.5-0.5,3.3-1.5s1.3-2.3,1.3-3.9
			c0-1.6-0.4-2.9-1.3-3.9s-2-1.5-3.3-1.5c-1.3,0-2.4,0.5-3.3,1.5c-0.9,1-1.3,2.3-1.3,3.9s0.4,2.9,1.3,3.9
			C84.1,139.7,85.2,140.2,86.6,140.2z M92.2,144.6l-1.3-4.6h0.4v-9.8h-0.4v-12.8h5.2v27.2H92.2z"/>
		<path class="st1" d="M109.2,145c-1.9,0-3.7-0.4-5.1-1.3c-1.5-0.8-2.6-2-3.4-3.5c-0.8-1.5-1.2-3.3-1.2-5.4c0-2,0.4-3.8,1.2-5.3
			c0.8-1.5,1.9-2.7,3.4-3.6c1.5-0.9,3.2-1.3,5.1-1.3c2,0,3.7,0.4,5.1,1.3c1.5,0.9,2.6,2.1,3.4,3.6c0.8,1.5,1.2,3.3,1.2,5.3
			c0,0.3,0,0.6,0,0.9c0,0.3,0,0.5-0.1,0.7h-15v-3.9h11.1l-0.8,1.9c0-1.7-0.4-3-1.2-4c-0.8-1-2-1.6-3.7-1.6c-1.4,0-2.6,0.4-3.5,1.3
			c-0.9,0.9-1.3,2.1-1.3,3.6v2.1c0,1.6,0.4,2.8,1.3,3.7c0.9,0.9,2.1,1.3,3.7,1.3c1.4,0,2.4-0.3,3.2-0.8c0.8-0.6,1.4-1.3,2-2.1
			l3.6,2.1c-0.9,1.6-2.1,2.9-3.6,3.7C113.1,144.5,111.3,145,109.2,145z"/>
		<path class="st1" d="M133,144.6v-27.2h9.5c2.1,0,3.8,0.3,5.2,0.8c1.3,0.5,2.3,1.4,3,2.5c0.6,1.1,1,2.5,1,4.1
			c0,1.4-0.3,2.5-0.9,3.6s-1.4,1.8-2.5,2.4c-1,0.6-2.2,0.9-3.4,0.9l0.2-1.6c1.6,0,2.9,0.3,4,0.9c1.1,0.6,1.9,1.4,2.5,2.4
			c0.6,1,0.9,2.3,0.9,3.6c0,2.5-0.8,4.4-2.3,5.7c-1.5,1.3-3.8,1.9-6.8,1.9H133z M138.2,120.2v21.3l-1.9-1.9h6.9
			c1.2,0,2.1-0.3,2.8-0.9c0.7-0.6,1-1.4,1-2.4c0-1.1-0.3-1.9-1-2.5c-0.7-0.6-1.6-0.8-2.7-0.8h-7v-4.6h6.3c1.2,0,2.1-0.2,2.7-0.7
			c0.6-0.5,0.9-1.2,0.9-2.2c0-0.9-0.3-1.6-0.9-2.2s-1.5-0.8-2.7-0.8h-6.2L138.2,120.2z"/>
		<path class="st1" d="M161.1,144.8c-0.9,0-1.7-0.2-2.4-0.6c-0.7-0.4-1.3-1-1.8-1.7c-0.4-0.8-0.7-1.8-0.7-3.1v-22.1h5.2v20.2
			c0,0.9,0.2,1.5,0.6,1.8c0.4,0.3,0.8,0.4,1.4,0.4v4.7c-0.3,0.1-0.6,0.2-1.1,0.2C161.9,144.7,161.5,144.8,161.1,144.8z"/>
		<path class="st1" d="M175.8,145c-2,0-3.8-0.4-5.3-1.3c-1.5-0.9-2.7-2.1-3.6-3.6c-0.9-1.5-1.3-3.3-1.3-5.3s0.4-3.8,1.3-5.3
			c0.9-1.5,2-2.7,3.6-3.6c1.5-0.9,3.3-1.3,5.3-1.3s3.8,0.4,5.3,1.3c1.5,0.9,2.7,2.1,3.6,3.6c0.9,1.5,1.3,3.3,1.3,5.3
			s-0.4,3.8-1.3,5.3c-0.9,1.5-2,2.7-3.6,3.6C179.6,144.6,177.8,145,175.8,145z M175.8,140c1.4,0,2.6-0.5,3.5-1.4
			c0.9-0.9,1.4-2.2,1.4-3.7c0-1.5-0.5-2.8-1.4-3.8c-0.9-1-2.1-1.4-3.5-1.4s-2.6,0.5-3.5,1.4c-0.9,0.9-1.3,2.2-1.3,3.7
			s0.4,2.8,1.3,3.8S174.3,140,175.8,140z"/>
		<path class="st1" d="M198.1,145c-2,0-3.7-0.4-5.2-1.3c-1.5-0.9-2.6-2.1-3.5-3.6s-1.2-3.3-1.2-5.3c0-2,0.4-3.7,1.2-5.3
			c0.8-1.5,2-2.8,3.5-3.6c1.5-0.9,3.2-1.3,5.2-1.3c2.1,0,3.9,0.5,5.5,1.6c1.6,1.1,2.7,2.5,3.4,4.3l-4.8,2.1
			c-0.4-0.9-0.9-1.6-1.6-2.1c-0.7-0.5-1.5-0.8-2.5-0.8c-1.3,0-2.4,0.5-3.3,1.4c-0.9,0.9-1.3,2.2-1.3,3.8c0,1.6,0.4,2.9,1.3,3.8
			c0.9,0.9,2,1.4,3.3,1.4c1,0,1.9-0.2,2.5-0.7c0.7-0.5,1.2-1.2,1.6-2.1l4.8,2.1c-0.7,1.8-1.8,3.2-3.4,4.3
			C202,144.5,200.1,145,198.1,145z"/>
		<path class="st1" d="M209.7,117.3h5.2v27.2h-5.2V117.3z M213.4,134.7V134l8.2-9h6l-9.1,10.2l-0.2-2.1l9.5,11.5h-6.2L213.4,134.7z"
			/>
	</g>
</g>
<path class="st2" d="M146,51h-36c-8.8,0-16-7.2-16-16V-1c0-8.8,7.2-16,16-16h36c8.8,0,16,7.2,16,16v36C162,43.8,154.8,51,146,51z"/>
<path class="st1" d="M132.9,31.7V38h-6.3c-3.5,0-6.4-2.7-6.5-6.2c-0.1-3.7,2.9-6.7,6.6-6.6C130.2,25.4,132.9,28.3,132.9,31.7z
	 M136.5,12.6c-4.4,0-8,3.6-8,8c0,0.5,0.1,1,0.1,1.5c3.3,0.8,6,3.2,7,6.4c0.3,0,0.6,0,0.9,0c4.4,0,8-3.6,8-8v-8H136.5z M124.7,22.3
	c-0.1-0.5-0.1-1-0.1-1.5c0-5,3.1-9.3,7.5-11.1c-2.2-1.9-5-3-8.1-3c-6.9,0-12.5,5.6-12.5,12.5v12.5h5.5C117,27,120.3,23.2,124.7,22.3
	z"/>
</svg>
